<mxfile host="app.diagrams.net" modified="2020-12-16T18:11:40.703Z" agent="5.0 (Windows NT 10.0; Win64; x64) AppleWebKit/537.36 (KHTML, like Gecko) Chrome/87.0.4280.88 Safari/537.36" etag="xSUSNSbbjyiVIn11VhAm" version="13.10.4" type="github">
  <diagram id="k07RV4F2AjpdlQNqAaYf" name="Page-1">
    <mxGraphModel dx="865" dy="457" grid="1" gridSize="10" guides="1" tooltips="1" connect="1" arrows="1" fold="1" page="1" pageScale="1" pageWidth="2336" pageHeight="1654" math="0" shadow="0">
      <root>
        <mxCell id="0" />
        <mxCell id="1" parent="0" />
        <mxCell id="BFemsfWMOj9B4iksQ67y-1" value="UTENTE" style="rounded=0;whiteSpace=wrap;html=1;" vertex="1" parent="1">
          <mxGeometry x="310" y="520" width="120" height="60" as="geometry" />
        </mxCell>
        <mxCell id="BFemsfWMOj9B4iksQ67y-2" value="SERVIZIO" style="rounded=0;whiteSpace=wrap;html=1;" vertex="1" parent="1">
          <mxGeometry x="750" y="520" width="120" height="60" as="geometry" />
        </mxCell>
        <mxCell id="BFemsfWMOj9B4iksQ67y-8" value="CATEGORIA" style="rounded=0;whiteSpace=wrap;html=1;" vertex="1" parent="1">
          <mxGeometry x="750" y="280" width="120" height="60" as="geometry" />
        </mxCell>
        <mxCell id="BFemsfWMOj9B4iksQ67y-9" value="RICHIEDE" style="rhombus;whiteSpace=wrap;html=1;" vertex="1" parent="1">
          <mxGeometry x="550" y="510" width="80" height="80" as="geometry" />
        </mxCell>
        <mxCell id="BFemsfWMOj9B4iksQ67y-10" value="" style="endArrow=none;html=1;entryX=0;entryY=0.5;entryDx=0;entryDy=0;exitX=1;exitY=0.5;exitDx=0;exitDy=0;" edge="1" parent="1" source="BFemsfWMOj9B4iksQ67y-1" target="BFemsfWMOj9B4iksQ67y-9">
          <mxGeometry width="50" height="50" relative="1" as="geometry">
            <mxPoint x="480" y="700" as="sourcePoint" />
            <mxPoint x="530" y="650" as="targetPoint" />
          </mxGeometry>
        </mxCell>
        <mxCell id="BFemsfWMOj9B4iksQ67y-11" value="" style="endArrow=none;html=1;entryX=1;entryY=0.5;entryDx=0;entryDy=0;exitX=0;exitY=0.5;exitDx=0;exitDy=0;" edge="1" parent="1" source="BFemsfWMOj9B4iksQ67y-2" target="BFemsfWMOj9B4iksQ67y-9">
          <mxGeometry width="50" height="50" relative="1" as="geometry">
            <mxPoint x="760" y="690" as="sourcePoint" />
            <mxPoint x="810" y="640" as="targetPoint" />
          </mxGeometry>
        </mxCell>
        <mxCell id="BFemsfWMOj9B4iksQ67y-12" value="(0,N)" style="text;html=1;align=center;verticalAlign=middle;resizable=0;points=[];autosize=1;" vertex="1" parent="1">
          <mxGeometry x="490" y="520" width="40" height="20" as="geometry" />
        </mxCell>
        <mxCell id="BFemsfWMOj9B4iksQ67y-13" value="(1,1)" style="text;html=1;align=center;verticalAlign=middle;resizable=0;points=[];autosize=1;" vertex="1" parent="1">
          <mxGeometry x="630" y="520" width="40" height="20" as="geometry" />
        </mxCell>
        <mxCell id="BFemsfWMOj9B4iksQ67y-14" value="APPARTIENE" style="rhombus;whiteSpace=wrap;html=1;" vertex="1" parent="1">
          <mxGeometry x="750" y="390" width="120" height="80" as="geometry" />
        </mxCell>
        <mxCell id="BFemsfWMOj9B4iksQ67y-15" value="" style="endArrow=none;html=1;entryX=0.5;entryY=1;entryDx=0;entryDy=0;exitX=0.5;exitY=0;exitDx=0;exitDy=0;" edge="1" parent="1" source="BFemsfWMOj9B4iksQ67y-14" target="BFemsfWMOj9B4iksQ67y-8">
          <mxGeometry width="50" height="50" relative="1" as="geometry">
            <mxPoint x="610" y="430" as="sourcePoint" />
            <mxPoint x="660" y="380" as="targetPoint" />
          </mxGeometry>
        </mxCell>
        <mxCell id="BFemsfWMOj9B4iksQ67y-16" value="" style="endArrow=none;html=1;entryX=0.5;entryY=1;entryDx=0;entryDy=0;exitX=0.5;exitY=0;exitDx=0;exitDy=0;" edge="1" parent="1" source="BFemsfWMOj9B4iksQ67y-2" target="BFemsfWMOj9B4iksQ67y-14">
          <mxGeometry width="50" height="50" relative="1" as="geometry">
            <mxPoint x="960" y="620" as="sourcePoint" />
            <mxPoint x="1010" y="570" as="targetPoint" />
          </mxGeometry>
        </mxCell>
        <mxCell id="BFemsfWMOj9B4iksQ67y-17" value="(1,1)" style="text;html=1;align=center;verticalAlign=middle;resizable=0;points=[];autosize=1;" vertex="1" parent="1">
          <mxGeometry x="810" y="470" width="40" height="20" as="geometry" />
        </mxCell>
        <mxCell id="BFemsfWMOj9B4iksQ67y-18" value="(0,N)" style="text;html=1;align=center;verticalAlign=middle;resizable=0;points=[];autosize=1;" vertex="1" parent="1">
          <mxGeometry x="810" y="370" width="40" height="20" as="geometry" />
        </mxCell>
        <mxCell id="BFemsfWMOj9B4iksQ67y-19" value="SVOLGERE" style="rhombus;whiteSpace=wrap;html=1;" vertex="1" parent="1">
          <mxGeometry x="550" y="650" width="80" height="80" as="geometry" />
        </mxCell>
        <mxCell id="BFemsfWMOj9B4iksQ67y-20" value="" style="endArrow=none;html=1;entryX=0.41;entryY=1.037;entryDx=0;entryDy=0;entryPerimeter=0;exitX=0;exitY=0.5;exitDx=0;exitDy=0;" edge="1" parent="1" source="BFemsfWMOj9B4iksQ67y-19" target="BFemsfWMOj9B4iksQ67y-1">
          <mxGeometry width="50" height="50" relative="1" as="geometry">
            <mxPoint x="350" y="810" as="sourcePoint" />
            <mxPoint x="400" y="760" as="targetPoint" />
            <Array as="points">
              <mxPoint x="359" y="690" />
            </Array>
          </mxGeometry>
        </mxCell>
        <mxCell id="BFemsfWMOj9B4iksQ67y-21" value="" style="endArrow=none;html=1;entryX=0.5;entryY=1;entryDx=0;entryDy=0;exitX=1;exitY=0.5;exitDx=0;exitDy=0;" edge="1" parent="1" source="BFemsfWMOj9B4iksQ67y-19" target="BFemsfWMOj9B4iksQ67y-2">
          <mxGeometry width="50" height="50" relative="1" as="geometry">
            <mxPoint x="680" y="810" as="sourcePoint" />
            <mxPoint x="730" y="760" as="targetPoint" />
            <Array as="points">
              <mxPoint x="810" y="690" />
            </Array>
          </mxGeometry>
        </mxCell>
        <mxCell id="BFemsfWMOj9B4iksQ67y-22" value="(0,N)" style="text;html=1;align=center;verticalAlign=middle;resizable=0;points=[];autosize=1;" vertex="1" parent="1">
          <mxGeometry x="500" y="660" width="40" height="20" as="geometry" />
        </mxCell>
        <mxCell id="BFemsfWMOj9B4iksQ67y-23" value="(0,1)" style="text;html=1;align=center;verticalAlign=middle;resizable=0;points=[];autosize=1;" vertex="1" parent="1">
          <mxGeometry x="640" y="660" width="40" height="20" as="geometry" />
        </mxCell>
        <mxCell id="BFemsfWMOj9B4iksQ67y-24" value="" style="group" vertex="1" connectable="0" parent="1">
          <mxGeometry x="310" y="490" width="10" height="30" as="geometry" />
        </mxCell>
        <mxCell id="BFemsfWMOj9B4iksQ67y-25" value="" style="endArrow=none;html=1;entryX=0.5;entryY=1;entryDx=0;entryDy=0;" edge="1" parent="BFemsfWMOj9B4iksQ67y-24" target="BFemsfWMOj9B4iksQ67y-26">
          <mxGeometry width="50" height="50" relative="1" as="geometry">
            <mxPoint x="5" y="30" as="sourcePoint" />
            <mxPoint y="20" as="targetPoint" />
          </mxGeometry>
        </mxCell>
        <mxCell id="BFemsfWMOj9B4iksQ67y-26" value="" style="ellipse;whiteSpace=wrap;html=1;aspect=fixed;" vertex="1" parent="BFemsfWMOj9B4iksQ67y-24">
          <mxGeometry width="10" height="10" as="geometry" />
        </mxCell>
        <mxCell id="BFemsfWMOj9B4iksQ67y-27" value="Nome" style="text;html=1;align=center;verticalAlign=middle;resizable=0;points=[];autosize=1;" vertex="1" parent="1">
          <mxGeometry x="290" y="460" width="50" height="20" as="geometry" />
        </mxCell>
        <mxCell id="BFemsfWMOj9B4iksQ67y-28" value="" style="group" vertex="1" connectable="0" parent="1">
          <mxGeometry x="360" y="490" width="10" height="30" as="geometry" />
        </mxCell>
        <mxCell id="BFemsfWMOj9B4iksQ67y-29" value="" style="endArrow=none;html=1;entryX=0.5;entryY=1;entryDx=0;entryDy=0;" edge="1" parent="BFemsfWMOj9B4iksQ67y-28" target="BFemsfWMOj9B4iksQ67y-30">
          <mxGeometry width="50" height="50" relative="1" as="geometry">
            <mxPoint x="5" y="30" as="sourcePoint" />
            <mxPoint y="20" as="targetPoint" />
          </mxGeometry>
        </mxCell>
        <mxCell id="BFemsfWMOj9B4iksQ67y-30" value="" style="ellipse;whiteSpace=wrap;html=1;aspect=fixed;" vertex="1" parent="BFemsfWMOj9B4iksQ67y-28">
          <mxGeometry width="10" height="10" as="geometry" />
        </mxCell>
        <mxCell id="BFemsfWMOj9B4iksQ67y-31" value="Cognome" style="text;html=1;align=center;verticalAlign=middle;resizable=0;points=[];autosize=1;" vertex="1" parent="1">
          <mxGeometry x="335" y="460" width="70" height="20" as="geometry" />
        </mxCell>
        <mxCell id="BFemsfWMOj9B4iksQ67y-32" value="" style="group" vertex="1" connectable="0" parent="1">
          <mxGeometry x="420" y="490" width="10" height="30" as="geometry" />
        </mxCell>
        <mxCell id="BFemsfWMOj9B4iksQ67y-33" value="" style="endArrow=none;html=1;entryX=0.5;entryY=1;entryDx=0;entryDy=0;" edge="1" parent="BFemsfWMOj9B4iksQ67y-32" target="BFemsfWMOj9B4iksQ67y-34">
          <mxGeometry width="50" height="50" relative="1" as="geometry">
            <mxPoint x="5" y="30" as="sourcePoint" />
            <mxPoint y="20" as="targetPoint" />
          </mxGeometry>
        </mxCell>
        <mxCell id="BFemsfWMOj9B4iksQ67y-34" value="" style="ellipse;whiteSpace=wrap;html=1;aspect=fixed;" vertex="1" parent="BFemsfWMOj9B4iksQ67y-32">
          <mxGeometry width="10" height="10" as="geometry" />
        </mxCell>
        <mxCell id="BFemsfWMOj9B4iksQ67y-35" value="Email" style="text;html=1;align=center;verticalAlign=middle;resizable=0;points=[];autosize=1;" vertex="1" parent="1">
          <mxGeometry x="405" y="460" width="50" height="20" as="geometry" />
        </mxCell>
        <mxCell id="BFemsfWMOj9B4iksQ67y-36" value="" style="group" vertex="1" connectable="0" parent="1">
          <mxGeometry x="280" y="520" width="30" height="10" as="geometry" />
        </mxCell>
        <mxCell id="BFemsfWMOj9B4iksQ67y-37" value="" style="endArrow=none;html=1;exitX=1;exitY=0.5;exitDx=0;exitDy=0;" edge="1" parent="BFemsfWMOj9B4iksQ67y-36" source="BFemsfWMOj9B4iksQ67y-38">
          <mxGeometry width="50" height="50" as="geometry">
            <mxPoint x="5" y="30" as="sourcePoint" />
            <mxPoint x="30" y="5" as="targetPoint" />
          </mxGeometry>
        </mxCell>
        <mxCell id="BFemsfWMOj9B4iksQ67y-38" value="" style="ellipse;whiteSpace=wrap;html=1;aspect=fixed;" vertex="1" parent="BFemsfWMOj9B4iksQ67y-36">
          <mxGeometry width="10" height="10" as="geometry" />
        </mxCell>
        <mxCell id="BFemsfWMOj9B4iksQ67y-39" value="Password" style="text;html=1;align=center;verticalAlign=middle;resizable=0;points=[];autosize=1;" vertex="1" parent="1">
          <mxGeometry x="210" y="510" width="70" height="20" as="geometry" />
        </mxCell>
        <mxCell id="BFemsfWMOj9B4iksQ67y-40" value="" style="group" vertex="1" connectable="0" parent="1">
          <mxGeometry x="280" y="540" width="30" height="10" as="geometry" />
        </mxCell>
        <mxCell id="BFemsfWMOj9B4iksQ67y-41" value="" style="endArrow=none;html=1;exitX=1;exitY=0.5;exitDx=0;exitDy=0;" edge="1" parent="BFemsfWMOj9B4iksQ67y-40" source="BFemsfWMOj9B4iksQ67y-42">
          <mxGeometry width="50" height="50" as="geometry">
            <mxPoint x="5" y="30" as="sourcePoint" />
            <mxPoint x="30" y="5" as="targetPoint" />
          </mxGeometry>
        </mxCell>
        <mxCell id="BFemsfWMOj9B4iksQ67y-42" value="" style="ellipse;whiteSpace=wrap;html=1;aspect=fixed;" vertex="1" parent="BFemsfWMOj9B4iksQ67y-40">
          <mxGeometry width="10" height="10" as="geometry" />
        </mxCell>
        <mxCell id="BFemsfWMOj9B4iksQ67y-43" value="Ruolo" style="text;html=1;align=center;verticalAlign=middle;resizable=0;points=[];autosize=1;" vertex="1" parent="1">
          <mxGeometry x="235" y="530" width="50" height="20" as="geometry" />
        </mxCell>
        <mxCell id="BFemsfWMOj9B4iksQ67y-44" value="Indirizzo" style="text;html=1;align=center;verticalAlign=middle;resizable=0;points=[];autosize=1;" vertex="1" parent="1">
          <mxGeometry x="220" y="550" width="60" height="20" as="geometry" />
        </mxCell>
        <mxCell id="BFemsfWMOj9B4iksQ67y-45" value="" style="group" vertex="1" connectable="0" parent="1">
          <mxGeometry x="280" y="560" width="30" height="10" as="geometry" />
        </mxCell>
        <mxCell id="BFemsfWMOj9B4iksQ67y-46" value="" style="endArrow=none;html=1;exitX=1;exitY=0.5;exitDx=0;exitDy=0;" edge="1" parent="BFemsfWMOj9B4iksQ67y-45" source="BFemsfWMOj9B4iksQ67y-47">
          <mxGeometry width="50" height="50" as="geometry">
            <mxPoint x="5" y="30" as="sourcePoint" />
            <mxPoint x="30" y="5" as="targetPoint" />
          </mxGeometry>
        </mxCell>
        <mxCell id="BFemsfWMOj9B4iksQ67y-47" value="" style="ellipse;whiteSpace=wrap;html=1;aspect=fixed;" vertex="1" parent="BFemsfWMOj9B4iksQ67y-45">
          <mxGeometry width="10" height="10" as="geometry" />
        </mxCell>
        <mxCell id="BFemsfWMOj9B4iksQ67y-48" value="" style="group" vertex="1" connectable="0" parent="1">
          <mxGeometry x="310" y="580" width="10" height="30" as="geometry" />
        </mxCell>
        <mxCell id="BFemsfWMOj9B4iksQ67y-49" value="" style="endArrow=none;html=1;entryX=0.5;entryY=0;entryDx=0;entryDy=0;" edge="1" parent="BFemsfWMOj9B4iksQ67y-48" target="BFemsfWMOj9B4iksQ67y-50">
          <mxGeometry y="20" width="50" height="50" as="geometry">
            <mxPoint x="5" as="sourcePoint" />
            <mxPoint x="30" y="25" as="targetPoint" />
          </mxGeometry>
        </mxCell>
        <mxCell id="BFemsfWMOj9B4iksQ67y-50" value="" style="ellipse;whiteSpace=wrap;html=1;aspect=fixed;" vertex="1" parent="BFemsfWMOj9B4iksQ67y-48">
          <mxGeometry y="20" width="10" height="10" as="geometry" />
        </mxCell>
        <mxCell id="BFemsfWMOj9B4iksQ67y-51" value="Cellulare" style="text;html=1;align=center;verticalAlign=middle;resizable=0;points=[];autosize=1;" vertex="1" parent="1">
          <mxGeometry x="285" y="610" width="60" height="20" as="geometry" />
        </mxCell>
        <mxCell id="BFemsfWMOj9B4iksQ67y-56" value="" style="group" vertex="1" connectable="0" parent="1">
          <mxGeometry x="380" y="580" width="10" height="30" as="geometry" />
        </mxCell>
        <mxCell id="BFemsfWMOj9B4iksQ67y-57" value="" style="endArrow=none;html=1;entryX=0.5;entryY=0;entryDx=0;entryDy=0;" edge="1" parent="BFemsfWMOj9B4iksQ67y-56" target="BFemsfWMOj9B4iksQ67y-58">
          <mxGeometry y="20" width="50" height="50" as="geometry">
            <mxPoint x="5" as="sourcePoint" />
            <mxPoint x="30" y="25" as="targetPoint" />
          </mxGeometry>
        </mxCell>
        <mxCell id="BFemsfWMOj9B4iksQ67y-58" value="" style="ellipse;whiteSpace=wrap;html=1;aspect=fixed;" vertex="1" parent="BFemsfWMOj9B4iksQ67y-56">
          <mxGeometry y="20" width="10" height="10" as="geometry" />
        </mxCell>
        <mxCell id="BFemsfWMOj9B4iksQ67y-59" value="Timestamp" style="text;html=1;align=center;verticalAlign=middle;resizable=0;points=[];autosize=1;" vertex="1" parent="1">
          <mxGeometry x="360" y="610" width="70" height="20" as="geometry" />
        </mxCell>
        <mxCell id="BFemsfWMOj9B4iksQ67y-60" value="" style="group" vertex="1" connectable="0" parent="1">
          <mxGeometry x="890" y="500" width="10" height="30" as="geometry" />
        </mxCell>
        <mxCell id="BFemsfWMOj9B4iksQ67y-61" value="" style="group" vertex="1" connectable="0" parent="BFemsfWMOj9B4iksQ67y-60">
          <mxGeometry x="-20" y="20" width="30" height="10" as="geometry" />
        </mxCell>
        <mxCell id="BFemsfWMOj9B4iksQ67y-62" value="" style="endArrow=none;html=1;entryX=0;entryY=0.5;entryDx=0;entryDy=0;" edge="1" parent="BFemsfWMOj9B4iksQ67y-61" target="BFemsfWMOj9B4iksQ67y-63">
          <mxGeometry x="20" width="50" height="50" as="geometry">
            <mxPoint y="5" as="sourcePoint" />
            <mxPoint x="10" y="-10" as="targetPoint" />
          </mxGeometry>
        </mxCell>
        <mxCell id="BFemsfWMOj9B4iksQ67y-63" value="" style="ellipse;whiteSpace=wrap;html=1;aspect=fixed;" vertex="1" parent="BFemsfWMOj9B4iksQ67y-61">
          <mxGeometry x="20" width="10" height="10" as="geometry" />
        </mxCell>
        <mxCell id="BFemsfWMOj9B4iksQ67y-64" value="Indirizzo" style="text;html=1;align=center;verticalAlign=middle;resizable=0;points=[];autosize=1;" vertex="1" parent="1">
          <mxGeometry x="900" y="515" width="60" height="20" as="geometry" />
        </mxCell>
        <mxCell id="BFemsfWMOj9B4iksQ67y-65" value="" style="group" vertex="1" connectable="0" parent="1">
          <mxGeometry x="890" y="520" width="10" height="30" as="geometry" />
        </mxCell>
        <mxCell id="BFemsfWMOj9B4iksQ67y-66" value="" style="group" vertex="1" connectable="0" parent="BFemsfWMOj9B4iksQ67y-65">
          <mxGeometry x="-20" y="20" width="30" height="10" as="geometry" />
        </mxCell>
        <mxCell id="BFemsfWMOj9B4iksQ67y-67" value="" style="endArrow=none;html=1;entryX=0;entryY=0.5;entryDx=0;entryDy=0;" edge="1" parent="BFemsfWMOj9B4iksQ67y-66" target="BFemsfWMOj9B4iksQ67y-68">
          <mxGeometry x="20" width="50" height="50" as="geometry">
            <mxPoint y="5" as="sourcePoint" />
            <mxPoint x="10" y="-10" as="targetPoint" />
          </mxGeometry>
        </mxCell>
        <mxCell id="BFemsfWMOj9B4iksQ67y-68" value="" style="ellipse;whiteSpace=wrap;html=1;aspect=fixed;" vertex="1" parent="BFemsfWMOj9B4iksQ67y-66">
          <mxGeometry x="20" width="10" height="10" as="geometry" />
        </mxCell>
        <mxCell id="BFemsfWMOj9B4iksQ67y-69" value="Dettagli" style="text;html=1;align=center;verticalAlign=middle;resizable=0;points=[];autosize=1;" vertex="1" parent="1">
          <mxGeometry x="900" y="535" width="60" height="20" as="geometry" />
        </mxCell>
        <mxCell id="BFemsfWMOj9B4iksQ67y-70" value="" style="group;" vertex="1" connectable="0" parent="1">
          <mxGeometry x="455" y="500" width="10" height="30" as="geometry" />
        </mxCell>
        <mxCell id="BFemsfWMOj9B4iksQ67y-71" value="" style="group" vertex="1" connectable="0" parent="BFemsfWMOj9B4iksQ67y-70">
          <mxGeometry x="-20" y="20" width="30" height="10" as="geometry" />
        </mxCell>
        <mxCell id="BFemsfWMOj9B4iksQ67y-73" value="" style="ellipse;whiteSpace=wrap;html=1;aspect=fixed;fillColor=#000000;" vertex="1" parent="BFemsfWMOj9B4iksQ67y-71">
          <mxGeometry x="20" width="10" height="10" as="geometry" />
        </mxCell>
        <mxCell id="BFemsfWMOj9B4iksQ67y-72" value="" style="endArrow=none;html=1;entryX=0;entryY=0.5;entryDx=0;entryDy=0;exitX=0.999;exitY=0.083;exitDx=0;exitDy=0;exitPerimeter=0;" edge="1" parent="1" target="BFemsfWMOj9B4iksQ67y-73" source="BFemsfWMOj9B4iksQ67y-1">
          <mxGeometry x="455" y="520" width="50" height="50" as="geometry">
            <mxPoint x="435" y="525" as="sourcePoint" />
            <mxPoint x="445" y="510" as="targetPoint" />
          </mxGeometry>
        </mxCell>
        <mxCell id="BFemsfWMOj9B4iksQ67y-75" value="Id" style="text;html=1;align=center;verticalAlign=middle;resizable=0;points=[];autosize=1;" vertex="1" parent="1">
          <mxGeometry x="460" y="510" width="30" height="20" as="geometry" />
        </mxCell>
        <mxCell id="BFemsfWMOj9B4iksQ67y-76" value="" style="group;" vertex="1" connectable="0" parent="1">
          <mxGeometry x="890" y="540" width="10" height="30" as="geometry" />
        </mxCell>
        <mxCell id="BFemsfWMOj9B4iksQ67y-77" value="" style="group" vertex="1" connectable="0" parent="BFemsfWMOj9B4iksQ67y-76">
          <mxGeometry x="-20" y="20" width="30" height="10" as="geometry" />
        </mxCell>
        <mxCell id="BFemsfWMOj9B4iksQ67y-78" value="" style="endArrow=none;html=1;entryX=0;entryY=0.5;entryDx=0;entryDy=0;" edge="1" parent="BFemsfWMOj9B4iksQ67y-77" target="BFemsfWMOj9B4iksQ67y-79">
          <mxGeometry x="20" width="50" height="50" as="geometry">
            <mxPoint y="5" as="sourcePoint" />
            <mxPoint x="10" y="-10" as="targetPoint" />
          </mxGeometry>
        </mxCell>
        <mxCell id="BFemsfWMOj9B4iksQ67y-79" value="" style="ellipse;whiteSpace=wrap;html=1;aspect=fixed;" vertex="1" parent="BFemsfWMOj9B4iksQ67y-77">
          <mxGeometry x="20" width="10" height="10" as="geometry" />
        </mxCell>
        <mxCell id="BFemsfWMOj9B4iksQ67y-80" value="Foto" style="text;html=1;align=center;verticalAlign=middle;resizable=0;points=[];autosize=1;" vertex="1" parent="1">
          <mxGeometry x="900" y="555" width="40" height="20" as="geometry" />
        </mxCell>
        <mxCell id="BFemsfWMOj9B4iksQ67y-81" value="" style="group;fillColor=none;" vertex="1" connectable="0" parent="1">
          <mxGeometry x="850" y="580" width="10" height="30" as="geometry" />
        </mxCell>
        <mxCell id="BFemsfWMOj9B4iksQ67y-82" value="" style="endArrow=none;html=1;entryX=0.5;entryY=0;entryDx=0;entryDy=0;" edge="1" parent="BFemsfWMOj9B4iksQ67y-81" target="BFemsfWMOj9B4iksQ67y-83">
          <mxGeometry y="20" width="50" height="50" as="geometry">
            <mxPoint x="5" as="sourcePoint" />
            <mxPoint x="30" y="25" as="targetPoint" />
          </mxGeometry>
        </mxCell>
        <mxCell id="BFemsfWMOj9B4iksQ67y-83" value="" style="ellipse;whiteSpace=wrap;html=1;aspect=fixed;" vertex="1" parent="BFemsfWMOj9B4iksQ67y-81">
          <mxGeometry y="20" width="10" height="10" as="geometry" />
        </mxCell>
        <mxCell id="BFemsfWMOj9B4iksQ67y-84" value="Data" style="text;html=1;align=center;verticalAlign=middle;resizable=0;points=[];autosize=1;" vertex="1" parent="1">
          <mxGeometry x="835" y="610" width="40" height="20" as="geometry" />
        </mxCell>
        <mxCell id="BFemsfWMOj9B4iksQ67y-85" value="" style="group;fillColor=none;" vertex="1" connectable="0" parent="1">
          <mxGeometry x="750" y="580" width="10" height="30" as="geometry" />
        </mxCell>
        <mxCell id="BFemsfWMOj9B4iksQ67y-86" value="" style="endArrow=none;html=1;entryX=0.5;entryY=0;entryDx=0;entryDy=0;" edge="1" parent="BFemsfWMOj9B4iksQ67y-85" target="BFemsfWMOj9B4iksQ67y-87">
          <mxGeometry y="20" width="50" height="50" as="geometry">
            <mxPoint x="5" as="sourcePoint" />
            <mxPoint x="30" y="25" as="targetPoint" />
          </mxGeometry>
        </mxCell>
        <mxCell id="BFemsfWMOj9B4iksQ67y-87" value="" style="ellipse;whiteSpace=wrap;html=1;aspect=fixed;" vertex="1" parent="BFemsfWMOj9B4iksQ67y-85">
          <mxGeometry y="20" width="10" height="10" as="geometry" />
        </mxCell>
        <mxCell id="BFemsfWMOj9B4iksQ67y-89" value="Fascia oraria" style="text;html=1;align=center;verticalAlign=middle;resizable=0;points=[];autosize=1;" vertex="1" parent="1">
          <mxGeometry x="710" y="610" width="90" height="20" as="geometry" />
        </mxCell>
        <mxCell id="BFemsfWMOj9B4iksQ67y-90" value="" style="group;fillColor=none;" vertex="1" connectable="0" parent="1">
          <mxGeometry x="780" y="490" width="10" height="30" as="geometry" />
        </mxCell>
        <mxCell id="BFemsfWMOj9B4iksQ67y-91" value="" style="endArrow=none;html=1;entryX=0.5;entryY=1;entryDx=0;entryDy=0;" edge="1" parent="BFemsfWMOj9B4iksQ67y-90" target="BFemsfWMOj9B4iksQ67y-92">
          <mxGeometry width="50" height="50" relative="1" as="geometry">
            <mxPoint x="5" y="30" as="sourcePoint" />
            <mxPoint y="20" as="targetPoint" />
          </mxGeometry>
        </mxCell>
        <mxCell id="BFemsfWMOj9B4iksQ67y-92" value="" style="ellipse;whiteSpace=wrap;html=1;aspect=fixed;fillColor=#000000;" vertex="1" parent="BFemsfWMOj9B4iksQ67y-90">
          <mxGeometry width="10" height="10" as="geometry" />
        </mxCell>
        <mxCell id="BFemsfWMOj9B4iksQ67y-93" value="Id" style="text;html=1;align=center;verticalAlign=middle;resizable=0;points=[];autosize=1;" vertex="1" parent="1">
          <mxGeometry x="770" y="470" width="30" height="20" as="geometry" />
        </mxCell>
        <mxCell id="BFemsfWMOj9B4iksQ67y-94" value="" style="group;" vertex="1" connectable="0" parent="1">
          <mxGeometry x="620" y="560" width="10" height="30" as="geometry" />
        </mxCell>
        <mxCell id="BFemsfWMOj9B4iksQ67y-95" value="" style="endArrow=none;html=1;exitX=0;exitY=0;exitDx=0;exitDy=0;" edge="1" parent="BFemsfWMOj9B4iksQ67y-94" source="BFemsfWMOj9B4iksQ67y-96">
          <mxGeometry y="20" width="50" height="50" as="geometry">
            <mxPoint x="5" as="sourcePoint" />
            <mxPoint x="-10" y="10" as="targetPoint" />
          </mxGeometry>
        </mxCell>
        <mxCell id="BFemsfWMOj9B4iksQ67y-96" value="" style="ellipse;whiteSpace=wrap;html=1;aspect=fixed;" vertex="1" parent="BFemsfWMOj9B4iksQ67y-94">
          <mxGeometry y="20" width="10" height="10" as="geometry" />
        </mxCell>
        <mxCell id="BFemsfWMOj9B4iksQ67y-97" value="data_inserimento" style="text;html=1;align=center;verticalAlign=middle;resizable=0;points=[];autosize=1;" vertex="1" parent="1">
          <mxGeometry x="565" y="590" width="110" height="20" as="geometry" />
        </mxCell>
        <mxCell id="BFemsfWMOj9B4iksQ67y-98" value="" style="group;fillColor=none;" vertex="1" connectable="0" parent="1">
          <mxGeometry x="860" y="490" width="10" height="30" as="geometry" />
        </mxCell>
        <mxCell id="BFemsfWMOj9B4iksQ67y-99" value="" style="endArrow=none;html=1;entryX=0.5;entryY=1;entryDx=0;entryDy=0;" edge="1" parent="BFemsfWMOj9B4iksQ67y-98" target="BFemsfWMOj9B4iksQ67y-100">
          <mxGeometry width="50" height="50" relative="1" as="geometry">
            <mxPoint x="5" y="30" as="sourcePoint" />
            <mxPoint y="20" as="targetPoint" />
          </mxGeometry>
        </mxCell>
        <mxCell id="BFemsfWMOj9B4iksQ67y-100" value="" style="ellipse;whiteSpace=wrap;html=1;aspect=fixed;" vertex="1" parent="BFemsfWMOj9B4iksQ67y-98">
          <mxGeometry width="10" height="10" as="geometry" />
        </mxCell>
        <mxCell id="BFemsfWMOj9B4iksQ67y-101" value="Scadenza" style="text;html=1;align=center;verticalAlign=middle;resizable=0;points=[];autosize=1;" vertex="1" parent="1">
          <mxGeometry x="850" y="470" width="70" height="20" as="geometry" />
        </mxCell>
        <mxCell id="BFemsfWMOj9B4iksQ67y-102" value="" style="group;fillColor=none;" vertex="1" connectable="0" parent="1">
          <mxGeometry x="620" y="700" width="10" height="30" as="geometry" />
        </mxCell>
        <mxCell id="BFemsfWMOj9B4iksQ67y-103" value="" style="endArrow=none;html=1;exitX=0;exitY=0;exitDx=0;exitDy=0;" edge="1" parent="BFemsfWMOj9B4iksQ67y-102" source="BFemsfWMOj9B4iksQ67y-104">
          <mxGeometry y="20" width="50" height="50" as="geometry">
            <mxPoint x="5" as="sourcePoint" />
            <mxPoint x="-10" y="10" as="targetPoint" />
          </mxGeometry>
        </mxCell>
        <mxCell id="BFemsfWMOj9B4iksQ67y-104" value="" style="ellipse;whiteSpace=wrap;html=1;aspect=fixed;" vertex="1" parent="BFemsfWMOj9B4iksQ67y-102">
          <mxGeometry y="20" width="10" height="10" as="geometry" />
        </mxCell>
        <mxCell id="BFemsfWMOj9B4iksQ67y-105" value="data_accettazione" style="text;html=1;align=center;verticalAlign=middle;resizable=0;points=[];autosize=1;" vertex="1" parent="1">
          <mxGeometry x="630" y="730" width="110" height="20" as="geometry" />
        </mxCell>
        <mxCell id="BFemsfWMOj9B4iksQ67y-106" value="" style="group;fillColor=none;" vertex="1" connectable="0" parent="1">
          <mxGeometry x="720" y="525" width="30" height="10" as="geometry" />
        </mxCell>
        <mxCell id="BFemsfWMOj9B4iksQ67y-107" value="" style="endArrow=none;html=1;exitX=1;exitY=0.5;exitDx=0;exitDy=0;" edge="1" parent="BFemsfWMOj9B4iksQ67y-106" source="BFemsfWMOj9B4iksQ67y-108">
          <mxGeometry width="50" height="50" as="geometry">
            <mxPoint x="5" y="30" as="sourcePoint" />
            <mxPoint x="30" y="5" as="targetPoint" />
          </mxGeometry>
        </mxCell>
        <mxCell id="BFemsfWMOj9B4iksQ67y-108" value="" style="ellipse;whiteSpace=wrap;html=1;aspect=fixed;" vertex="1" parent="BFemsfWMOj9B4iksQ67y-106">
          <mxGeometry width="10" height="10" as="geometry" />
        </mxCell>
        <mxCell id="BFemsfWMOj9B4iksQ67y-109" value="Eseguito" style="text;html=1;align=center;verticalAlign=middle;resizable=0;points=[];autosize=1;" vertex="1" parent="1">
          <mxGeometry x="675" y="500" width="60" height="20" as="geometry" />
        </mxCell>
        <mxCell id="BFemsfWMOj9B4iksQ67y-110" value="" style="group;fillColor=none;" vertex="1" connectable="0" parent="1">
          <mxGeometry x="750" y="250" width="10" height="30" as="geometry" />
        </mxCell>
        <mxCell id="BFemsfWMOj9B4iksQ67y-111" value="" style="endArrow=none;html=1;entryX=0.5;entryY=1;entryDx=0;entryDy=0;" edge="1" parent="BFemsfWMOj9B4iksQ67y-110" target="BFemsfWMOj9B4iksQ67y-112">
          <mxGeometry width="50" height="50" relative="1" as="geometry">
            <mxPoint x="5" y="30" as="sourcePoint" />
            <mxPoint y="20" as="targetPoint" />
          </mxGeometry>
        </mxCell>
        <mxCell id="BFemsfWMOj9B4iksQ67y-112" value="" style="ellipse;whiteSpace=wrap;html=1;aspect=fixed;fillColor=#000000;" vertex="1" parent="BFemsfWMOj9B4iksQ67y-110">
          <mxGeometry width="10" height="10" as="geometry" />
        </mxCell>
        <mxCell id="BFemsfWMOj9B4iksQ67y-113" value="Nome" style="text;html=1;align=center;verticalAlign=middle;resizable=0;points=[];autosize=1;" vertex="1" parent="1">
          <mxGeometry x="715" y="220" width="50" height="20" as="geometry" />
        </mxCell>
        <mxCell id="BFemsfWMOj9B4iksQ67y-114" value="" style="group;fillColor=none;" vertex="1" connectable="0" parent="1">
          <mxGeometry x="550" y="700" width="10" height="30" as="geometry" />
        </mxCell>
        <mxCell id="BFemsfWMOj9B4iksQ67y-116" value="" style="ellipse;whiteSpace=wrap;html=1;aspect=fixed;" vertex="1" parent="BFemsfWMOj9B4iksQ67y-114">
          <mxGeometry y="20" width="10" height="10" as="geometry" />
        </mxCell>
        <mxCell id="BFemsfWMOj9B4iksQ67y-115" value="" style="endArrow=none;html=1;entryX=1;entryY=0;entryDx=0;entryDy=0;" edge="1" parent="1" target="BFemsfWMOj9B4iksQ67y-116" source="BFemsfWMOj9B4iksQ67y-19">
          <mxGeometry x="540" y="730" width="50" height="50" as="geometry">
            <mxPoint x="545" y="710" as="sourcePoint" />
            <mxPoint x="570" y="735" as="targetPoint" />
          </mxGeometry>
        </mxCell>
        <mxCell id="BFemsfWMOj9B4iksQ67y-117" value="assistenza" style="text;html=1;align=center;verticalAlign=middle;resizable=0;points=[];autosize=1;" vertex="1" parent="1">
          <mxGeometry x="485" y="730" width="70" height="20" as="geometry" />
        </mxCell>
        <mxCell id="BFemsfWMOj9B4iksQ67y-118" value="" style="group;fillColor=none;" vertex="1" connectable="0" parent="1">
          <mxGeometry x="825" y="250" width="10" height="30" as="geometry" />
        </mxCell>
        <mxCell id="BFemsfWMOj9B4iksQ67y-119" value="" style="endArrow=none;html=1;entryX=0.5;entryY=1;entryDx=0;entryDy=0;" edge="1" parent="BFemsfWMOj9B4iksQ67y-118" target="BFemsfWMOj9B4iksQ67y-120">
          <mxGeometry width="50" height="50" relative="1" as="geometry">
            <mxPoint x="5" y="30" as="sourcePoint" />
            <mxPoint y="20" as="targetPoint" />
          </mxGeometry>
        </mxCell>
        <mxCell id="BFemsfWMOj9B4iksQ67y-120" value="" style="ellipse;whiteSpace=wrap;html=1;aspect=fixed;" vertex="1" parent="BFemsfWMOj9B4iksQ67y-118">
          <mxGeometry width="10" height="10" as="geometry" />
        </mxCell>
        <mxCell id="BFemsfWMOj9B4iksQ67y-121" value="Foto" style="text;html=1;align=center;verticalAlign=middle;resizable=0;points=[];autosize=1;" vertex="1" parent="1">
          <mxGeometry x="800" y="220" width="40" height="20" as="geometry" />
        </mxCell>
        <mxCell id="BFemsfWMOj9B4iksQ67y-122" value="" style="group;" vertex="1" connectable="0" parent="1">
          <mxGeometry x="450" y="545" width="10" height="30" as="geometry" />
        </mxCell>
        <mxCell id="BFemsfWMOj9B4iksQ67y-123" value="" style="group" vertex="1" connectable="0" parent="BFemsfWMOj9B4iksQ67y-122">
          <mxGeometry x="-20" y="20" width="30" height="10" as="geometry" />
        </mxCell>
        <mxCell id="BFemsfWMOj9B4iksQ67y-124" value="" style="endArrow=none;html=1;entryX=0;entryY=0.5;entryDx=0;entryDy=0;" edge="1" parent="BFemsfWMOj9B4iksQ67y-123" target="BFemsfWMOj9B4iksQ67y-125">
          <mxGeometry x="20" width="50" height="50" as="geometry">
            <mxPoint y="5" as="sourcePoint" />
            <mxPoint x="10" y="-10" as="targetPoint" />
          </mxGeometry>
        </mxCell>
        <mxCell id="BFemsfWMOj9B4iksQ67y-125" value="" style="ellipse;whiteSpace=wrap;html=1;aspect=fixed;" vertex="1" parent="BFemsfWMOj9B4iksQ67y-123">
          <mxGeometry x="20" width="10" height="10" as="geometry" />
        </mxCell>
        <mxCell id="BFemsfWMOj9B4iksQ67y-126" value="DataDiNascita" style="text;html=1;align=center;verticalAlign=middle;resizable=0;points=[];autosize=1;" vertex="1" parent="1">
          <mxGeometry x="455" y="560" width="90" height="20" as="geometry" />
        </mxCell>
      </root>
    </mxGraphModel>
  </diagram>
</mxfile>
